<svg xmlns="http://www.w3.org/2000/svg" viewBox="0 0 512 512" width="32" height="32">
  <path fill="#e8728a" d="M493.8,195.5c-13-41.6-53.9-68-97.2-62.7c-19,2.3-37.1,8.2-53.9,17.5c3.9-18.8,4.1-37.8,0.7-56.7c-7.9-42.9-45.2-74-88.8-74s-81,31.1-88.8,74c-2.8,15.5-3.2,31.3-1,47c-14-7.6-28.9-12.8-44.4-15.6c-42.9-7.7-85.2,16.3-100.5,57.2C4.6,223.1,20.6,269,58,291.4c16.4,9.9,34.4,16.3,53.3,19.3C96.7,323.1,84.8,338,76,355c-20.2,38.7-9.8,86.2,24.6,113c16.4,12.7,35.9,19.1,55.5,19.1c21.5,0,43-7.7,60.1-22.9c14.3-12.8,25.8-27.9,34.3-45.1c7.5,17.6,18.2,33.4,31.7,47c17.5,17.4,40.5,26.4,63.8,26.4c17.9,0,35.8-5.3,51.4-16.1c35.8-24.8,48.8-71.7,30.8-111.4c-7.9-17.5-18.9-33-32.8-46.2c19.1-1.9,37.3-7.4,54.3-16.3C488.2,282.1,506.8,237.1,493.8,195.5z"/>
</svg>
